<?xml version="1.0" encoding="UTF-8"?>
<svg xmlns="http://www.w3.org/2000/svg" width="203.2mm" height="128.5mm" viewBox="0 0 203.2 128.5">
  <!-- Panel background -->
  <rect x="0" y="0" width="203.2" height="128.5" fill="#131019"/>

  <!-- Accent line under the single centered header -->
  <line x1="71.6" y1="14" x2="131.6" y2="14" stroke="#e8a33d" stroke-width="0.35" stroke-opacity="0.6"/>

  <!-- Readout window: date, time, strongest aspect -->
  <rect x="118" y="18" width="44" height="16" rx="1" fill="#0c0a11" stroke="#e8a33d" stroke-width="0.35" stroke-opacity="0.6"/>

  <!-- Time/mix controls frame -->
  <rect x="118" y="40" width="44" height="41" rx="2" fill="#181420" stroke="#2c2438" stroke-width="0.4"/>

  <!-- Patch bay frame (parallels the Da'at matrix) -->
  <rect x="166.0" y="18" width="34.5" height="104.5" rx="2" fill="#181420" stroke="#2c2438" stroke-width="0.4"/>
  <line x1="169.0" y1="112.5" x2="197.5" y2="112.5" stroke="#2c2438" stroke-width="0.4"/>

  <!-- Zodiac wheel: 0 deg Aries at 9 o'clock, longitudes counterclockwise -->
  <g fill="none" stroke="#e8a33d" stroke-width="0.35" stroke-opacity="0.55">
    <circle cx="60.0" cy="71.0" r="54.0"/>
    <circle cx="60.0" cy="71.0" r="44.5"/>
  </g>
  <circle cx="60.0" cy="71.0" r="31.5" fill="none" stroke="#2c2438" stroke-width="0.35"/>

  <!-- 12 sign-cusp spokes -->
  <g stroke="#4c4170" stroke-width="0.65" stroke-opacity="0.9">
    <line x1="15.50" y1="71.00" x2="6.00" y2="71.00"/>
    <line x1="21.46" y1="93.25" x2="13.23" y2="98.00"/>
    <line x1="37.75" y1="109.54" x2="33.00" y2="117.77"/>
    <line x1="60.00" y1="115.50" x2="60.00" y2="125.00"/>
    <line x1="82.25" y1="109.54" x2="87.00" y2="117.77"/>
    <line x1="98.54" y1="93.25" x2="106.77" y2="98.00"/>
    <line x1="104.50" y1="71.00" x2="114.00" y2="71.00"/>
    <line x1="98.54" y1="48.75" x2="106.77" y2="44.00"/>
    <line x1="82.25" y1="32.46" x2="87.00" y2="24.23"/>
    <line x1="60.00" y1="26.50" x2="60.00" y2="17.00"/>
    <line x1="37.75" y1="32.46" x2="33.00" y2="24.23"/>
    <line x1="21.46" y1="48.75" x2="13.23" y2="44.00"/>
  </g>

  <!-- Degree ticks every 5 deg, brighter every 30 -->
  <g stroke="#4c4170" stroke-width="0.3" stroke-opacity="0.6">
    <line x1="15.67" y1="74.88" x2="17.46" y2="74.72"/>
    <line x1="16.18" y1="78.73" x2="17.95" y2="78.41"/>
    <line x1="17.02" y1="82.52" x2="18.75" y2="82.05"/>
    <line x1="18.18" y1="86.22" x2="19.88" y2="85.60"/>
    <line x1="19.67" y1="89.81" x2="21.30" y2="89.05"/>
    <line x1="23.55" y1="96.52" x2="25.02" y2="95.49"/>
    <line x1="25.91" y1="99.60" x2="27.29" y2="98.45"/>
    <line x1="28.53" y1="102.47" x2="29.81" y2="101.19"/>
    <line x1="31.40" y1="105.09" x2="32.55" y2="103.71"/>
    <line x1="34.48" y1="107.45" x2="35.51" y2="105.98"/>
    <line x1="41.19" y1="111.33" x2="41.95" y2="109.70"/>
    <line x1="44.78" y1="112.82" x2="45.40" y2="111.12"/>
    <line x1="48.48" y1="113.98" x2="48.95" y2="112.25"/>
    <line x1="52.27" y1="114.82" x2="52.59" y2="113.05"/>
    <line x1="56.12" y1="115.33" x2="56.28" y2="113.54"/>
    <line x1="63.88" y1="115.33" x2="63.72" y2="113.54"/>
    <line x1="67.73" y1="114.82" x2="67.41" y2="113.05"/>
    <line x1="71.52" y1="113.98" x2="71.05" y2="112.25"/>
    <line x1="75.22" y1="112.82" x2="74.60" y2="111.12"/>
    <line x1="78.81" y1="111.33" x2="78.05" y2="109.70"/>
    <line x1="85.52" y1="107.45" x2="84.49" y2="105.98"/>
    <line x1="88.60" y1="105.09" x2="87.45" y2="103.71"/>
    <line x1="91.47" y1="102.47" x2="90.19" y2="101.19"/>
    <line x1="94.09" y1="99.60" x2="92.71" y2="98.45"/>
    <line x1="96.45" y1="96.52" x2="94.98" y2="95.49"/>
    <line x1="100.33" y1="89.81" x2="98.70" y2="89.05"/>
    <line x1="101.82" y1="86.22" x2="100.12" y2="85.60"/>
    <line x1="102.98" y1="82.52" x2="101.25" y2="82.05"/>
    <line x1="103.82" y1="78.73" x2="102.05" y2="78.41"/>
    <line x1="104.33" y1="74.88" x2="102.54" y2="74.72"/>
    <line x1="104.33" y1="67.12" x2="102.54" y2="67.28"/>
    <line x1="103.82" y1="63.27" x2="102.05" y2="63.59"/>
    <line x1="102.98" y1="59.48" x2="101.25" y2="59.95"/>
    <line x1="101.82" y1="55.78" x2="100.12" y2="56.40"/>
    <line x1="100.33" y1="52.19" x2="98.70" y2="52.95"/>
    <line x1="96.45" y1="45.48" x2="94.98" y2="46.51"/>
    <line x1="94.09" y1="42.40" x2="92.71" y2="43.55"/>
    <line x1="91.47" y1="39.53" x2="90.19" y2="40.81"/>
    <line x1="88.60" y1="36.91" x2="87.45" y2="38.29"/>
    <line x1="85.52" y1="34.55" x2="84.49" y2="36.02"/>
    <line x1="78.81" y1="30.67" x2="78.05" y2="32.30"/>
    <line x1="75.22" y1="29.18" x2="74.60" y2="30.88"/>
    <line x1="71.52" y1="28.02" x2="71.05" y2="29.75"/>
    <line x1="67.73" y1="27.18" x2="67.41" y2="28.95"/>
    <line x1="63.88" y1="26.67" x2="63.72" y2="28.46"/>
    <line x1="56.12" y1="26.67" x2="56.28" y2="28.46"/>
    <line x1="52.27" y1="27.18" x2="52.59" y2="28.95"/>
    <line x1="48.48" y1="28.02" x2="48.95" y2="29.75"/>
    <line x1="44.78" y1="29.18" x2="45.40" y2="30.88"/>
    <line x1="41.19" y1="30.67" x2="41.95" y2="32.30"/>
    <line x1="34.48" y1="34.55" x2="35.51" y2="36.02"/>
    <line x1="31.40" y1="36.91" x2="32.55" y2="38.29"/>
    <line x1="28.53" y1="39.53" x2="29.81" y2="40.81"/>
    <line x1="25.91" y1="42.40" x2="27.29" y2="43.55"/>
    <line x1="23.55" y1="45.48" x2="25.02" y2="46.51"/>
    <line x1="19.67" y1="52.19" x2="21.30" y2="52.95"/>
    <line x1="18.18" y1="55.78" x2="19.88" y2="56.40"/>
    <line x1="17.02" y1="59.48" x2="18.75" y2="59.95"/>
    <line x1="16.18" y1="63.27" x2="17.95" y2="63.59"/>
    <line x1="15.67" y1="67.12" x2="17.46" y2="67.28"/>
  </g>
  <g stroke="#a89fbf" stroke-width="0.4" stroke-opacity="0.7">
    <line x1="15.50" y1="71.00" x2="18.10" y2="71.00"/>
    <line x1="21.46" y1="93.25" x2="23.71" y2="91.95"/>
    <line x1="37.75" y1="109.54" x2="39.05" y2="107.29"/>
    <line x1="60.00" y1="115.50" x2="60.00" y2="112.90"/>
    <line x1="82.25" y1="109.54" x2="80.95" y2="107.29"/>
    <line x1="98.54" y1="93.25" x2="96.29" y2="91.95"/>
    <line x1="104.50" y1="71.00" x2="101.90" y2="71.00"/>
    <line x1="98.54" y1="48.75" x2="96.29" y2="50.05"/>
    <line x1="82.25" y1="32.46" x2="80.95" y2="34.71"/>
    <line x1="60.00" y1="26.50" x2="60.00" y2="29.10"/>
    <line x1="37.75" y1="32.46" x2="39.05" y2="34.71"/>
    <line x1="21.46" y1="48.75" x2="23.71" y2="50.05"/>
  </g>

  <!-- Earth at the center, with the fixed cross -->
  <circle cx="60.0" cy="71.0" r="3" fill="#0c0a11" stroke="#e8a33d" stroke-width="0.35" stroke-opacity="0.55"/>
  <g stroke="#e8a33d" stroke-width="0.3" stroke-opacity="0.55">
    <line x1="58.10" y1="71.0" x2="61.90" y2="71.0"/>
    <line x1="60.0" y1="69.10" x2="60.0" y2="72.90"/>
  </g>
</svg>
