<?xml version="1.0" encoding="UTF-8"?>
<svg xmlns="http://www.w3.org/2000/svg" width="203.2mm" height="128.5mm" viewBox="0 0 203.2 128.5">
  <!-- Panel background -->
  <rect x="0" y="0" width="203.2" height="128.5" fill="#000000"/>

  <!-- Header divider: hairlines fading outward from the chamber glyph -->
  <g stroke="#cd762b" stroke-width="0.3">
    <line x1="71.60" y1="10.8" x2="76.07" y2="10.8" stroke-opacity="0.08"/>
    <line x1="76.07" y1="10.8" x2="80.53" y2="10.8" stroke-opacity="0.2"/>
    <line x1="80.53" y1="10.8" x2="85.00" y2="10.8" stroke-opacity="0.33"/>
    <line x1="85.00" y1="10.8" x2="89.47" y2="10.8" stroke-opacity="0.47"/>
    <line x1="89.47" y1="10.8" x2="93.93" y2="10.8" stroke-opacity="0.6"/>
    <line x1="93.93" y1="10.8" x2="98.40" y2="10.8" stroke-opacity="0.75"/>
    <line x1="104.80" y1="10.8" x2="109.27" y2="10.8" stroke-opacity="0.75"/>
    <line x1="109.27" y1="10.8" x2="113.73" y2="10.8" stroke-opacity="0.6"/>
    <line x1="113.73" y1="10.8" x2="118.20" y2="10.8" stroke-opacity="0.47"/>
    <line x1="118.20" y1="10.8" x2="122.67" y2="10.8" stroke-opacity="0.33"/>
    <line x1="122.67" y1="10.8" x2="127.13" y2="10.8" stroke-opacity="0.2"/>
    <line x1="127.13" y1="10.8" x2="131.60" y2="10.8" stroke-opacity="0.08"/>
  </g>
  <!-- Chamber glyph: sun (the wheel's center) -->
  <circle cx="101.6" cy="10.8" r="1.25" fill="none" stroke="#ffc464" stroke-width="0.3" stroke-opacity="0.9"/>
  <circle cx="101.6" cy="10.8" r="0.33" fill="#ffc464" fill-opacity="0.9"/>

  <!-- Readout window: date, time, strongest aspect -->
  <rect x="118" y="18" width="44" height="16" rx="1" fill="#070302" stroke="#cd762b" stroke-width="0.35" stroke-opacity="0.6"/>

  <!-- Time/mix controls frame -->
  <rect x="118" y="40" width="44" height="41" rx="2" fill="#140c06" stroke="#382110" stroke-width="0.4"/>

  <!-- Patch bay frame (parallels the Da'at matrix) -->
  <rect x="166.0" y="18" width="34.5" height="104.5" rx="2" fill="#140c06" stroke="#382110" stroke-width="0.4"/>
  <line x1="169.0" y1="112.5" x2="197.5" y2="112.5" stroke="#382110" stroke-width="0.4"/>

  <!-- Zodiac wheel: 0 deg Aries at 9 o'clock, longitudes counterclockwise -->
  <g fill="none" stroke="#cd762b" stroke-width="0.35" stroke-opacity="0.55">
    <circle cx="60.0" cy="71.0" r="54.0"/>
    <circle cx="60.0" cy="71.0" r="44.5"/>
  </g>
  <circle cx="60.0" cy="71.0" r="31.5" fill="none" stroke="#382110" stroke-width="0.35"/>

  <!-- 12 sign-cusp spokes -->
  <g stroke="#6b4522" stroke-width="0.65" stroke-opacity="0.9">
    <line x1="15.50" y1="71.00" x2="6.00" y2="71.00"/>
    <line x1="21.46" y1="93.25" x2="13.23" y2="98.00"/>
    <line x1="37.75" y1="109.54" x2="33.00" y2="117.77"/>
    <line x1="60.00" y1="115.50" x2="60.00" y2="125.00"/>
    <line x1="82.25" y1="109.54" x2="87.00" y2="117.77"/>
    <line x1="98.54" y1="93.25" x2="106.77" y2="98.00"/>
    <line x1="104.50" y1="71.00" x2="114.00" y2="71.00"/>
    <line x1="98.54" y1="48.75" x2="106.77" y2="44.00"/>
    <line x1="82.25" y1="32.46" x2="87.00" y2="24.23"/>
    <line x1="60.00" y1="26.50" x2="60.00" y2="17.00"/>
    <line x1="37.75" y1="32.46" x2="33.00" y2="24.23"/>
    <line x1="21.46" y1="48.75" x2="13.23" y2="44.00"/>
  </g>

  <!-- Degree ticks every 5 deg, brighter every 30 -->
  <g stroke="#6b4522" stroke-width="0.3" stroke-opacity="0.6">
    <line x1="15.67" y1="74.88" x2="17.46" y2="74.72"/>
    <line x1="16.18" y1="78.73" x2="17.95" y2="78.41"/>
    <line x1="17.02" y1="82.52" x2="18.75" y2="82.05"/>
    <line x1="18.18" y1="86.22" x2="19.88" y2="85.60"/>
    <line x1="19.67" y1="89.81" x2="21.30" y2="89.05"/>
    <line x1="23.55" y1="96.52" x2="25.02" y2="95.49"/>
    <line x1="25.91" y1="99.60" x2="27.29" y2="98.45"/>
    <line x1="28.53" y1="102.47" x2="29.81" y2="101.19"/>
    <line x1="31.40" y1="105.09" x2="32.55" y2="103.71"/>
    <line x1="34.48" y1="107.45" x2="35.51" y2="105.98"/>
    <line x1="41.19" y1="111.33" x2="41.95" y2="109.70"/>
    <line x1="44.78" y1="112.82" x2="45.40" y2="111.12"/>
    <line x1="48.48" y1="113.98" x2="48.95" y2="112.25"/>
    <line x1="52.27" y1="114.82" x2="52.59" y2="113.05"/>
    <line x1="56.12" y1="115.33" x2="56.28" y2="113.54"/>
    <line x1="63.88" y1="115.33" x2="63.72" y2="113.54"/>
    <line x1="67.73" y1="114.82" x2="67.41" y2="113.05"/>
    <line x1="71.52" y1="113.98" x2="71.05" y2="112.25"/>
    <line x1="75.22" y1="112.82" x2="74.60" y2="111.12"/>
    <line x1="78.81" y1="111.33" x2="78.05" y2="109.70"/>
    <line x1="85.52" y1="107.45" x2="84.49" y2="105.98"/>
    <line x1="88.60" y1="105.09" x2="87.45" y2="103.71"/>
    <line x1="91.47" y1="102.47" x2="90.19" y2="101.19"/>
    <line x1="94.09" y1="99.60" x2="92.71" y2="98.45"/>
    <line x1="96.45" y1="96.52" x2="94.98" y2="95.49"/>
    <line x1="100.33" y1="89.81" x2="98.70" y2="89.05"/>
    <line x1="101.82" y1="86.22" x2="100.12" y2="85.60"/>
    <line x1="102.98" y1="82.52" x2="101.25" y2="82.05"/>
    <line x1="103.82" y1="78.73" x2="102.05" y2="78.41"/>
    <line x1="104.33" y1="74.88" x2="102.54" y2="74.72"/>
    <line x1="104.33" y1="67.12" x2="102.54" y2="67.28"/>
    <line x1="103.82" y1="63.27" x2="102.05" y2="63.59"/>
    <line x1="102.98" y1="59.48" x2="101.25" y2="59.95"/>
    <line x1="101.82" y1="55.78" x2="100.12" y2="56.40"/>
    <line x1="100.33" y1="52.19" x2="98.70" y2="52.95"/>
    <line x1="96.45" y1="45.48" x2="94.98" y2="46.51"/>
    <line x1="94.09" y1="42.40" x2="92.71" y2="43.55"/>
    <line x1="91.47" y1="39.53" x2="90.19" y2="40.81"/>
    <line x1="88.60" y1="36.91" x2="87.45" y2="38.29"/>
    <line x1="85.52" y1="34.55" x2="84.49" y2="36.02"/>
    <line x1="78.81" y1="30.67" x2="78.05" y2="32.30"/>
    <line x1="75.22" y1="29.18" x2="74.60" y2="30.88"/>
    <line x1="71.52" y1="28.02" x2="71.05" y2="29.75"/>
    <line x1="67.73" y1="27.18" x2="67.41" y2="28.95"/>
    <line x1="63.88" y1="26.67" x2="63.72" y2="28.46"/>
    <line x1="56.12" y1="26.67" x2="56.28" y2="28.46"/>
    <line x1="52.27" y1="27.18" x2="52.59" y2="28.95"/>
    <line x1="48.48" y1="28.02" x2="48.95" y2="29.75"/>
    <line x1="44.78" y1="29.18" x2="45.40" y2="30.88"/>
    <line x1="41.19" y1="30.67" x2="41.95" y2="32.30"/>
    <line x1="34.48" y1="34.55" x2="35.51" y2="36.02"/>
    <line x1="31.40" y1="36.91" x2="32.55" y2="38.29"/>
    <line x1="28.53" y1="39.53" x2="29.81" y2="40.81"/>
    <line x1="25.91" y1="42.40" x2="27.29" y2="43.55"/>
    <line x1="23.55" y1="45.48" x2="25.02" y2="46.51"/>
    <line x1="19.67" y1="52.19" x2="21.30" y2="52.95"/>
    <line x1="18.18" y1="55.78" x2="19.88" y2="56.40"/>
    <line x1="17.02" y1="59.48" x2="18.75" y2="59.95"/>
    <line x1="16.18" y1="63.27" x2="17.95" y2="63.59"/>
    <line x1="15.67" y1="67.12" x2="17.46" y2="67.28"/>
  </g>
  <g stroke="#9c6a3b" stroke-width="0.4" stroke-opacity="0.7">
    <line x1="15.50" y1="71.00" x2="18.10" y2="71.00"/>
    <line x1="21.46" y1="93.25" x2="23.71" y2="91.95"/>
    <line x1="37.75" y1="109.54" x2="39.05" y2="107.29"/>
    <line x1="60.00" y1="115.50" x2="60.00" y2="112.90"/>
    <line x1="82.25" y1="109.54" x2="80.95" y2="107.29"/>
    <line x1="98.54" y1="93.25" x2="96.29" y2="91.95"/>
    <line x1="104.50" y1="71.00" x2="101.90" y2="71.00"/>
    <line x1="98.54" y1="48.75" x2="96.29" y2="50.05"/>
    <line x1="82.25" y1="32.46" x2="80.95" y2="34.71"/>
    <line x1="60.00" y1="26.50" x2="60.00" y2="29.10"/>
    <line x1="37.75" y1="32.46" x2="39.05" y2="34.71"/>
    <line x1="21.46" y1="48.75" x2="23.71" y2="50.05"/>
  </g>

  <!-- Earth at the center, with the fixed cross -->
  <circle cx="60.0" cy="71.0" r="3" fill="#070302" stroke="#cd762b" stroke-width="0.35" stroke-opacity="0.55"/>
  <g stroke="#cd762b" stroke-width="0.3" stroke-opacity="0.55">
    <line x1="58.10" y1="71.0" x2="61.90" y2="71.0"/>
    <line x1="60.0" y1="69.10" x2="60.0" y2="72.90"/>
  </g>

  <!-- Corner brackets (Church card motif) -->
  <g fill="none" stroke="#cd762b" stroke-width="0.4" stroke-opacity="0.9">
    <path d="M 118,42.4 L 118,40 L 120.4,40"/>
    <path d="M 162,78.6 L 162,81 L 159.6,81"/>
    <path d="M 166,20.4 L 166,18 L 168.4,18"/>
    <path d="M 200.5,120.1 L 200.5,122.5 L 198.1,122.5"/>
  </g>

  <!-- Brand mark, flush to the bottom edge: ETERNAL (eclipse sigil) ECLIPSE.
       Wordmark outlines from Poppins SemiBold (OFL), cap height 1.9mm. -->
  <g transform="translate(101.6 127.9)">
    <g fill="#9c6a3b" fill-opacity="0.9">
      <path d="M-14.915 -1.586V-1.111H-14.278V-0.810H-14.915V-0.309H-14.197V0.000H-15.295V-1.895H-14.197V-1.586Z"/>
      <path d="M-12.245 -1.892V-1.586H-12.750V0.000H-13.129V-1.586H-13.633V-1.892Z"/>
      <path d="M-11.270 -1.586V-1.111H-10.633V-0.810H-11.270V-0.309H-10.551V0.000H-11.649V-1.895H-10.551V-1.586Z"/>
      <path d="M-8.911 0.000 -9.329 -0.737H-9.508V0.000H-9.887V-1.892H-9.177Q-8.957 -1.892 -8.803 -1.815Q-8.648 -1.737 -8.571 -1.606Q-8.494 -1.474 -8.494 -1.312Q-8.494 -1.125 -8.602 -0.974Q-8.711 -0.824 -8.925 -0.767L-8.472 0.000ZM-9.508 -1.022H-9.190Q-9.036 -1.022 -8.960 -1.096Q-8.884 -1.171 -8.884 -1.304Q-8.884 -1.434 -8.960 -1.506Q-9.036 -1.577 -9.190 -1.577H-9.508Z"/>
      <path d="M-6.212 0.000H-6.591L-7.450 -1.298V0.000H-7.830V-1.895H-7.450L-6.591 -0.594V-1.895H-6.212Z"/>
      <path d="M-4.357 -0.360H-5.111L-5.236 0.000H-5.634L-4.954 -1.895H-4.512L-3.832 0.000H-4.233ZM-4.460 -0.664 -4.734 -1.455 -5.008 -0.664Z"/>
      <path d="M-2.877 -0.301H-2.254V0.000H-3.257V-1.892H-2.877Z"/>
      <path d="M3.867 -1.586V-1.111H4.504V-0.810H3.867V-0.309H4.585V0.000H3.487V-1.895H4.585V-1.586Z"/>
      <path d="M6.117 -1.916Q6.434 -1.916 6.672 -1.754Q6.911 -1.591 7.006 -1.304H6.569Q6.504 -1.439 6.386 -1.507Q6.268 -1.575 6.114 -1.575Q5.948 -1.575 5.820 -1.498Q5.691 -1.420 5.619 -1.279Q5.547 -1.138 5.547 -0.949Q5.547 -0.762 5.619 -0.619Q5.691 -0.477 5.820 -0.400Q5.948 -0.323 6.114 -0.323Q6.268 -0.323 6.386 -0.392Q6.504 -0.461 6.569 -0.596H7.006Q6.911 -0.306 6.673 -0.145Q6.436 0.016 6.117 0.016Q5.845 0.016 5.627 -0.107Q5.409 -0.230 5.283 -0.450Q5.157 -0.669 5.157 -0.949Q5.157 -1.228 5.283 -1.449Q5.409 -1.670 5.627 -1.793Q5.845 -1.916 6.117 -1.916Z"/>
      <path d="M8.030 -0.301H8.654V0.000H7.651V-1.892H8.030Z"/>
      <path d="M9.594 -1.892V0.000H9.215V-1.892Z"/>
      <path d="M10.985 -0.726H10.668V0.000H10.288V-1.892H10.985Q11.204 -1.892 11.359 -1.816Q11.513 -1.740 11.591 -1.607Q11.668 -1.474 11.668 -1.306Q11.668 -1.155 11.596 -1.022Q11.524 -0.889 11.371 -0.808Q11.218 -0.726 10.985 -0.726ZM11.278 -1.306Q11.278 -1.583 10.969 -1.583H10.668V-1.033H10.969Q11.126 -1.033 11.202 -1.104Q11.278 -1.176 11.278 -1.306Z"/>
      <path d="M12.207 -0.545H12.614Q12.622 -0.428 12.697 -0.360Q12.771 -0.293 12.901 -0.293Q13.034 -0.293 13.110 -0.356Q13.186 -0.420 13.186 -0.523Q13.186 -0.607 13.134 -0.661Q13.083 -0.716 13.006 -0.747Q12.928 -0.778 12.793 -0.816Q12.609 -0.870 12.493 -0.923Q12.378 -0.976 12.296 -1.083Q12.213 -1.190 12.213 -1.369Q12.213 -1.537 12.297 -1.661Q12.381 -1.786 12.533 -1.853Q12.685 -1.919 12.880 -1.919Q13.172 -1.919 13.355 -1.777Q13.538 -1.634 13.557 -1.380H13.140Q13.134 -1.477 13.057 -1.541Q12.980 -1.605 12.853 -1.605Q12.741 -1.605 12.675 -1.548Q12.609 -1.491 12.609 -1.382Q12.609 -1.306 12.659 -1.256Q12.709 -1.206 12.783 -1.175Q12.858 -1.144 12.994 -1.103Q13.178 -1.049 13.294 -0.995Q13.411 -0.941 13.495 -0.832Q13.579 -0.724 13.579 -0.548Q13.579 -0.396 13.500 -0.266Q13.422 -0.136 13.270 -0.058Q13.118 0.019 12.909 0.019Q12.712 0.019 12.553 -0.049Q12.395 -0.117 12.302 -0.244Q12.210 -0.371 12.207 -0.545Z"/>
      <path d="M14.606 -1.586V-1.111H15.243V-0.810H14.606V-0.309H15.325V0.000H14.227V-1.895H15.325V-1.586Z"/>
    </g>
    <circle cx="0.550" cy="-0.950" r="1.05" fill="none" stroke="#ffc464" stroke-width="0.3" stroke-opacity="0.9"/>
    <circle cx="0.550" cy="-0.950" r="0.28" fill="#cd762b"/>
  </g>
</svg>
