<?xml version="1.0" encoding="UTF-8"?>
<svg xmlns="http://www.w3.org/2000/svg" width="213.36mm" height="128.5mm" viewBox="0 0 213.36 128.5">
  <!-- Panel background -->
  <rect x="0" y="0" width="213.36" height="128.5" fill="#000000"/>

  <!-- Header divider: hairlines fading outward from the chamber glyph -->
  <g stroke="#cd762b" stroke-width="0.3">
    <line x1="4.00" y1="10.8" x2="20.58" y2="10.8" stroke-opacity="0.08"/>
    <line x1="20.58" y1="10.8" x2="37.16" y2="10.8" stroke-opacity="0.2"/>
    <line x1="37.16" y1="10.8" x2="53.74" y2="10.8" stroke-opacity="0.33"/>
    <line x1="53.74" y1="10.8" x2="70.32" y2="10.8" stroke-opacity="0.47"/>
    <line x1="70.32" y1="10.8" x2="86.90" y2="10.8" stroke-opacity="0.6"/>
    <line x1="86.90" y1="10.8" x2="103.48" y2="10.8" stroke-opacity="0.75"/>
    <line x1="109.88" y1="10.8" x2="126.46" y2="10.8" stroke-opacity="0.75"/>
    <line x1="126.46" y1="10.8" x2="143.04" y2="10.8" stroke-opacity="0.6"/>
    <line x1="143.04" y1="10.8" x2="159.62" y2="10.8" stroke-opacity="0.47"/>
    <line x1="159.62" y1="10.8" x2="176.20" y2="10.8" stroke-opacity="0.33"/>
    <line x1="176.20" y1="10.8" x2="192.78" y2="10.8" stroke-opacity="0.2"/>
    <line x1="192.78" y1="10.8" x2="209.36" y2="10.8" stroke-opacity="0.08"/>
  </g>
  <!-- Chamber glyph: triangle with base bar (the elements) -->
  <path d="M 106.68,9.55 L 107.93,11.75 L 105.43,11.75 Z M 104.98,11.75 L 108.38,11.75" fill="none" stroke="#ffc464" stroke-width="0.3" stroke-opacity="0.9"/>

  <!-- Section frames (filter/FX column and patch bay only; the pentagram
       floats free like Cosmic Clock's wheel) -->
  <rect x="121.5" y="18" width="36" height="104.9" rx="2" fill="#140c06" stroke="#382110" stroke-width="0.4"/>
  <rect x="161" y="18" width="48.9" height="104.9" rx="2" fill="#140c06" stroke="#382110" stroke-width="0.4"/>

  <!-- Ring through all ten knob centers -->
  <circle cx="60" cy="70" r="44" fill="none" stroke="#cd762b" stroke-width="0.5" stroke-opacity="0.35"/>

  <!-- Modifier lines into the pentagram corners (drawn first so they
       tuck under the woven band), hairlines like the ring -->
  <g stroke="#cd762b" stroke-width="0.35" stroke-opacity="0.35">
    <line x1="85.86" y1="34.40" x2="70.58" y2="55.44"/>
    <line x1="101.85" y1="83.60" x2="77.12" y2="75.56"/>
    <line x1="60.00" y1="114.00" x2="60.00" y2="88.00"/>
    <line x1="18.15" y1="83.60" x2="42.88" y2="75.56"/>
    <line x1="34.14" y1="34.40" x2="49.42" y2="55.44"/>
  </g>

  <!-- Woven pentagram: double-line star ribbons, title gold -->
  <g stroke="#ffc464" stroke-width="0.5" stroke-opacity="0.9">
    <line x1="59.14" y1="26.28" x2="85.01" y2="105.87"/>
    <line x1="60.86" y1="25.72" x2="86.72" y2="105.32"/>
    <line x1="101.32" y1="55.68" x2="33.61" y2="104.87"/>
    <line x1="102.38" y1="57.13" x2="34.67" y2="106.32"/>
    <line x1="86.39" y1="104.87" x2="18.68" y2="55.68"/>
    <line x1="85.33" y1="106.32" x2="17.62" y2="57.13"/>
    <line x1="34.99" y1="105.87" x2="60.86" y2="26.28"/>
    <line x1="33.28" y1="105.32" x2="59.14" y2="25.72"/>
    <line x1="18.15" y1="57.30" x2="101.85" y2="57.30"/>
    <line x1="18.15" y1="55.50" x2="101.85" y2="55.50"/>
  </g>
  <!-- Over/under weave at the five inner corners -->
  <line x1="74.87" y1="71.77" x2="77.10" y2="78.62" stroke="#000000" stroke-width="2.80"/>
  <g stroke="#ffc464" stroke-width="0.5" stroke-opacity="0.9">
    <line x1="74.02" y1="72.05" x2="76.24" y2="78.90"/>
    <line x1="75.73" y1="71.49" x2="77.95" y2="78.34"/>
  </g>
  <line x1="62.91" y1="84.69" x2="57.09" y2="88.92" stroke="#000000" stroke-width="2.80"/>
  <g stroke="#ffc464" stroke-width="0.5" stroke-opacity="0.9">
    <line x1="62.38" y1="83.96" x2="56.56" y2="88.19"/>
    <line x1="63.44" y1="85.42" x2="57.62" y2="89.65"/>
  </g>
  <line x1="46.93" y1="77.31" x2="41.10" y2="73.08" stroke="#000000" stroke-width="2.80"/>
  <g stroke="#ffc464" stroke-width="0.5" stroke-opacity="0.9">
    <line x1="47.46" y1="76.58" x2="41.63" y2="72.35"/>
    <line x1="46.40" y1="78.04" x2="40.57" y2="73.81"/>
  </g>
  <line x1="49.01" y1="59.83" x2="51.23" y2="52.98" stroke="#000000" stroke-width="2.80"/>
  <g stroke="#ffc464" stroke-width="0.5" stroke-opacity="0.9">
    <line x1="49.86" y1="60.11" x2="52.09" y2="53.26"/>
    <line x1="48.15" y1="59.55" x2="50.38" y2="52.70"/>
  </g>
  <line x1="66.28" y1="56.40" x2="73.48" y2="56.40" stroke="#000000" stroke-width="2.80"/>
  <g stroke="#ffc464" stroke-width="0.5" stroke-opacity="0.9">
    <line x1="66.28" y1="57.30" x2="73.48" y2="57.30"/>
    <line x1="66.28" y1="55.50" x2="73.48" y2="55.50"/>
  </g>

  <!-- Inner circle around the SPIRIT latch -->
  <circle cx="60" cy="70" r="9" fill="none" stroke="#6b4522" stroke-width="0.65" stroke-opacity="0.9"/>

  <!-- Abyssal Harmonics seal around the DAEMON knob: bold outer ring,
       thin inner ring, in the label's stamp red -->
  <g fill="none" stroke="#ff0000" stroke-opacity="0.9">
    <circle cx="60" cy="114" r="6.5" stroke-width="0.5"/>
    <circle cx="60" cy="114" r="5.6" stroke-width="0.25"/>
  </g>

  <!-- Element glyphs, white, each inside its triangular pentagram arm -->
  <g stroke="#ffeeb8" stroke-width="0.3" stroke-opacity="0.8" fill="none">
    <!-- Spirit: circle, top arm -->
    <circle cx="60" cy="46.27" r="2"/>
    <!-- Air: upward triangle, barred -->
    <path d="M 37.43 60.27 L 34.93 64.57 L 39.93 64.57 Z"/>
    <line x1="35.83" y1="63.07" x2="39.03" y2="63.07"/>
    <!-- Water: downward triangle -->
    <path d="M 82.57 65.07 L 80.07 60.77 L 85.07 60.77 Z"/>
    <!-- Earth: downward triangle, barred -->
    <path d="M 46.05 91.60 L 43.55 87.30 L 48.55 87.30 Z"/>
    <line x1="44.45" y1="88.80" x2="47.65" y2="88.80"/>
    <!-- Fire: upward triangle -->
    <path d="M 73.95 86.80 L 71.45 91.10 L 76.45 91.10 Z"/>
  </g>

  <!-- Filter/FX column constellation -->
  <g stroke="#6b4522" stroke-width="0.65" stroke-opacity="0.9">
    <line x1="139.5" y1="50" x2="139.5" y2="70"/>
    <line x1="139.5" y1="92" x2="131" y2="110"/>
    <line x1="139.5" y1="92" x2="148" y2="110"/>
  </g>

  <!-- Patch bay output separator -->
  <line x1="163" y1="109.2" x2="207.9" y2="109.2" stroke="#382110" stroke-width="0.4"/>

  <!-- Corner brackets (Church card motif) -->
  <g fill="none" stroke="#cd762b" stroke-width="0.4" stroke-opacity="0.9">
    <path d="M 121.5,20.4 L 121.5,18 L 123.9,18"/>
    <path d="M 157.5,120.5 L 157.5,122.9 L 155.1,122.9"/>
    <path d="M 161,20.4 L 161,18 L 163.4,18"/>
    <path d="M 209.9,120.5 L 209.9,122.9 L 207.5,122.9"/>
  </g>

  <!-- Brand mark, flush to the bottom edge: ETERNAL (eclipse sigil) ECLIPSE.
       Wordmark outlines from Poppins SemiBold (OFL), cap height 1.9mm. -->
  <g transform="translate(106.68 127.9)">
    <g fill="#9c6a3b" fill-opacity="0.9">
      <path d="M-14.915 -1.586V-1.111H-14.278V-0.810H-14.915V-0.309H-14.197V0.000H-15.295V-1.895H-14.197V-1.586Z"/>
      <path d="M-12.245 -1.892V-1.586H-12.750V0.000H-13.129V-1.586H-13.633V-1.892Z"/>
      <path d="M-11.270 -1.586V-1.111H-10.633V-0.810H-11.270V-0.309H-10.551V0.000H-11.649V-1.895H-10.551V-1.586Z"/>
      <path d="M-8.911 0.000 -9.329 -0.737H-9.508V0.000H-9.887V-1.892H-9.177Q-8.957 -1.892 -8.803 -1.815Q-8.648 -1.737 -8.571 -1.606Q-8.494 -1.474 -8.494 -1.312Q-8.494 -1.125 -8.602 -0.974Q-8.711 -0.824 -8.925 -0.767L-8.472 0.000ZM-9.508 -1.022H-9.190Q-9.036 -1.022 -8.960 -1.096Q-8.884 -1.171 -8.884 -1.304Q-8.884 -1.434 -8.960 -1.506Q-9.036 -1.577 -9.190 -1.577H-9.508Z"/>
      <path d="M-6.212 0.000H-6.591L-7.450 -1.298V0.000H-7.830V-1.895H-7.450L-6.591 -0.594V-1.895H-6.212Z"/>
      <path d="M-4.357 -0.360H-5.111L-5.236 0.000H-5.634L-4.954 -1.895H-4.512L-3.832 0.000H-4.233ZM-4.460 -0.664 -4.734 -1.455 -5.008 -0.664Z"/>
      <path d="M-2.877 -0.301H-2.254V0.000H-3.257V-1.892H-2.877Z"/>
      <path d="M3.867 -1.586V-1.111H4.504V-0.810H3.867V-0.309H4.585V0.000H3.487V-1.895H4.585V-1.586Z"/>
      <path d="M6.117 -1.916Q6.434 -1.916 6.672 -1.754Q6.911 -1.591 7.006 -1.304H6.569Q6.504 -1.439 6.386 -1.507Q6.268 -1.575 6.114 -1.575Q5.948 -1.575 5.820 -1.498Q5.691 -1.420 5.619 -1.279Q5.547 -1.138 5.547 -0.949Q5.547 -0.762 5.619 -0.619Q5.691 -0.477 5.820 -0.400Q5.948 -0.323 6.114 -0.323Q6.268 -0.323 6.386 -0.392Q6.504 -0.461 6.569 -0.596H7.006Q6.911 -0.306 6.673 -0.145Q6.436 0.016 6.117 0.016Q5.845 0.016 5.627 -0.107Q5.409 -0.230 5.283 -0.450Q5.157 -0.669 5.157 -0.949Q5.157 -1.228 5.283 -1.449Q5.409 -1.670 5.627 -1.793Q5.845 -1.916 6.117 -1.916Z"/>
      <path d="M8.030 -0.301H8.654V0.000H7.651V-1.892H8.030Z"/>
      <path d="M9.594 -1.892V0.000H9.215V-1.892Z"/>
      <path d="M10.985 -0.726H10.668V0.000H10.288V-1.892H10.985Q11.204 -1.892 11.359 -1.816Q11.513 -1.740 11.591 -1.607Q11.668 -1.474 11.668 -1.306Q11.668 -1.155 11.596 -1.022Q11.524 -0.889 11.371 -0.808Q11.218 -0.726 10.985 -0.726ZM11.278 -1.306Q11.278 -1.583 10.969 -1.583H10.668V-1.033H10.969Q11.126 -1.033 11.202 -1.104Q11.278 -1.176 11.278 -1.306Z"/>
      <path d="M12.207 -0.545H12.614Q12.622 -0.428 12.697 -0.360Q12.771 -0.293 12.901 -0.293Q13.034 -0.293 13.110 -0.356Q13.186 -0.420 13.186 -0.523Q13.186 -0.607 13.134 -0.661Q13.083 -0.716 13.006 -0.747Q12.928 -0.778 12.793 -0.816Q12.609 -0.870 12.493 -0.923Q12.378 -0.976 12.296 -1.083Q12.213 -1.190 12.213 -1.369Q12.213 -1.537 12.297 -1.661Q12.381 -1.786 12.533 -1.853Q12.685 -1.919 12.880 -1.919Q13.172 -1.919 13.355 -1.777Q13.538 -1.634 13.557 -1.380H13.140Q13.134 -1.477 13.057 -1.541Q12.980 -1.605 12.853 -1.605Q12.741 -1.605 12.675 -1.548Q12.609 -1.491 12.609 -1.382Q12.609 -1.306 12.659 -1.256Q12.709 -1.206 12.783 -1.175Q12.858 -1.144 12.994 -1.103Q13.178 -1.049 13.294 -0.995Q13.411 -0.941 13.495 -0.832Q13.579 -0.724 13.579 -0.548Q13.579 -0.396 13.500 -0.266Q13.422 -0.136 13.270 -0.058Q13.118 0.019 12.909 0.019Q12.712 0.019 12.553 -0.049Q12.395 -0.117 12.302 -0.244Q12.210 -0.371 12.207 -0.545Z"/>
      <path d="M14.606 -1.586V-1.111H15.243V-0.810H14.606V-0.309H15.325V0.000H14.227V-1.895H15.325V-1.586Z"/>
    </g>
    <circle cx="0.550" cy="-0.950" r="1.05" fill="none" stroke="#ffc464" stroke-width="0.3" stroke-opacity="0.9"/>
    <circle cx="0.550" cy="-0.950" r="0.28" fill="#cd762b"/>
  </g>
</svg>
