<?xml version="1.0" encoding="UTF-8"?>
<svg xmlns="http://www.w3.org/2000/svg" width="111.76mm" height="128.5mm" viewBox="0 0 111.76 128.5">
  <!-- Panel background -->
  <rect x="0" y="0" width="111.76" height="128.5" fill="#000000"/>

  <!-- Header divider: hairlines fading outward from the chamber glyph -->
  <g stroke="#cd762b" stroke-width="0.3">
    <line x1="4.00" y1="14" x2="12.11" y2="14" stroke-opacity="0.08"/>
    <line x1="12.11" y1="14" x2="20.23" y2="14" stroke-opacity="0.2"/>
    <line x1="20.23" y1="14" x2="28.34" y2="14" stroke-opacity="0.33"/>
    <line x1="28.34" y1="14" x2="36.45" y2="14" stroke-opacity="0.47"/>
    <line x1="36.45" y1="14" x2="44.57" y2="14" stroke-opacity="0.6"/>
    <line x1="44.57" y1="14" x2="52.68" y2="14" stroke-opacity="0.75"/>
    <line x1="59.08" y1="14" x2="67.19" y2="14" stroke-opacity="0.75"/>
    <line x1="67.19" y1="14" x2="75.31" y2="14" stroke-opacity="0.6"/>
    <line x1="75.31" y1="14" x2="83.42" y2="14" stroke-opacity="0.47"/>
    <line x1="83.42" y1="14" x2="91.53" y2="14" stroke-opacity="0.33"/>
    <line x1="91.53" y1="14" x2="99.65" y2="14" stroke-opacity="0.2"/>
    <line x1="99.65" y1="14" x2="107.76" y2="14" stroke-opacity="0.08"/>
  </g>
  <!-- Chamber glyph: concave diamond (the hidden gate) -->
  <path d="M 0,-1.3 Q 0.45,-0.45 1.3,0 Q 0.45,0.45 0,1.3 Q -0.45,0.45 -1.3,0 Q -0.45,-0.45 0,-1.3 Z"
        transform="translate(55.88 14)" fill="none" stroke="#ffc464" stroke-width="0.3" stroke-opacity="0.9"/>

  <!-- Da'at matrix frame -->
  <rect x="67" y="18" width="43" height="104.5" rx="2" fill="#140c06" stroke="#382110" stroke-width="0.4"/>

  <!-- The 22 paths (jack centers: K 32,24 / Ch 52,34 / B 12,34 / Cs 52,52 /
       G 12,52 / T 32,61 / N 52,79 / H 12,79 / Y 32,88 / M 32,102) -->
  <g stroke="#6b4522" stroke-width="0.65" stroke-opacity="0.9">
    <line x1="32" y1="24" x2="52" y2="34"/>
    <line x1="32" y1="24" x2="12" y2="34"/>
    <line x1="32" y1="24" x2="32" y2="61"/>
    <line x1="52" y1="34" x2="12" y2="34"/>
    <line x1="52" y1="34" x2="32" y2="61"/>
    <line x1="52" y1="34" x2="52" y2="52"/>
    <line x1="12" y1="34" x2="32" y2="61"/>
    <line x1="12" y1="34" x2="12" y2="52"/>
    <line x1="52" y1="52" x2="12" y2="52"/>
    <line x1="52" y1="52" x2="32" y2="61"/>
    <line x1="52" y1="52" x2="52" y2="79"/>
    <line x1="12" y1="52" x2="32" y2="61"/>
    <line x1="12" y1="52" x2="12" y2="79"/>
    <line x1="32" y1="61" x2="52" y2="79"/>
    <line x1="32" y1="61" x2="12" y2="79"/>
    <line x1="32" y1="61" x2="32" y2="88"/>
    <line x1="52" y1="79" x2="12" y2="79"/>
    <line x1="52" y1="79" x2="32" y2="88"/>
    <line x1="52" y1="79" x2="32" y2="102"/>
    <line x1="12" y1="79" x2="32" y2="88"/>
    <line x1="12" y1="79" x2="32" y2="102"/>
    <line x1="32" y1="88" x2="32" y2="102"/>
  </g>

  <!-- Sephirah circles -->
  <g fill="#070302" stroke="#cd762b" stroke-width="0.35" stroke-opacity="0.55">
    <circle cx="32" cy="24" r="5.4"/>
    <circle cx="52" cy="34" r="5.4"/>
    <circle cx="12" cy="34" r="5.4"/>
    <circle cx="52" cy="52" r="5.4"/>
    <circle cx="12" cy="52" r="5.4"/>
    <circle cx="32" cy="61" r="5.4"/>
    <circle cx="52" cy="79" r="5.4"/>
    <circle cx="12" cy="79" r="5.4"/>
    <circle cx="32" cy="88" r="5.4"/>
    <circle cx="32" cy="102" r="5.4"/>
  </g>

  <!-- Da'at: the hidden sephirah, gate into the matrix -->
  <circle cx="32" cy="42.5" r="4" fill="none" stroke="#9c6a3b" stroke-width="0.35"
          stroke-opacity="0.6" stroke-dasharray="1.2 1.2"/>
  <line x1="36" y1="42.5" x2="67" y2="42.5" stroke="#9c6a3b" stroke-width="0.35"
        stroke-opacity="0.4" stroke-dasharray="1.2 1.2"/>

  <!-- Ephemeris date window -->
  <rect x="28" y="111" width="34" height="8" rx="1" fill="#070302" stroke="#cd762b"
        stroke-width="0.35" stroke-opacity="0.6"/>

  <!-- Corner brackets (Church card motif) -->
  <g fill="none" stroke="#cd762b" stroke-width="0.4" stroke-opacity="0.9">
    <path d="M 67,20.4 L 67,18 L 69.4,18"/>
    <path d="M 110,120.1 L 110,122.5 L 107.6,122.5"/>
  </g>

  <!-- Brand mark, flush to the bottom edge: ETERNAL (eclipse sigil) ECLIPSE.
       Wordmark outlines from Poppins SemiBold (OFL), cap height 1.9mm. -->
  <g transform="translate(55.88 127.9)">
    <g fill="#9c6a3b" fill-opacity="0.9">
      <path d="M-14.915 -1.586V-1.111H-14.278V-0.810H-14.915V-0.309H-14.197V0.000H-15.295V-1.895H-14.197V-1.586Z"/>
      <path d="M-12.245 -1.892V-1.586H-12.750V0.000H-13.129V-1.586H-13.633V-1.892Z"/>
      <path d="M-11.270 -1.586V-1.111H-10.633V-0.810H-11.270V-0.309H-10.551V0.000H-11.649V-1.895H-10.551V-1.586Z"/>
      <path d="M-8.911 0.000 -9.329 -0.737H-9.508V0.000H-9.887V-1.892H-9.177Q-8.957 -1.892 -8.803 -1.815Q-8.648 -1.737 -8.571 -1.606Q-8.494 -1.474 -8.494 -1.312Q-8.494 -1.125 -8.602 -0.974Q-8.711 -0.824 -8.925 -0.767L-8.472 0.000ZM-9.508 -1.022H-9.190Q-9.036 -1.022 -8.960 -1.096Q-8.884 -1.171 -8.884 -1.304Q-8.884 -1.434 -8.960 -1.506Q-9.036 -1.577 -9.190 -1.577H-9.508Z"/>
      <path d="M-6.212 0.000H-6.591L-7.450 -1.298V0.000H-7.830V-1.895H-7.450L-6.591 -0.594V-1.895H-6.212Z"/>
      <path d="M-4.357 -0.360H-5.111L-5.236 0.000H-5.634L-4.954 -1.895H-4.512L-3.832 0.000H-4.233ZM-4.460 -0.664 -4.734 -1.455 -5.008 -0.664Z"/>
      <path d="M-2.877 -0.301H-2.254V0.000H-3.257V-1.892H-2.877Z"/>
      <path d="M3.867 -1.586V-1.111H4.504V-0.810H3.867V-0.309H4.585V0.000H3.487V-1.895H4.585V-1.586Z"/>
      <path d="M6.117 -1.916Q6.434 -1.916 6.672 -1.754Q6.911 -1.591 7.006 -1.304H6.569Q6.504 -1.439 6.386 -1.507Q6.268 -1.575 6.114 -1.575Q5.948 -1.575 5.820 -1.498Q5.691 -1.420 5.619 -1.279Q5.547 -1.138 5.547 -0.949Q5.547 -0.762 5.619 -0.619Q5.691 -0.477 5.820 -0.400Q5.948 -0.323 6.114 -0.323Q6.268 -0.323 6.386 -0.392Q6.504 -0.461 6.569 -0.596H7.006Q6.911 -0.306 6.673 -0.145Q6.436 0.016 6.117 0.016Q5.845 0.016 5.627 -0.107Q5.409 -0.230 5.283 -0.450Q5.157 -0.669 5.157 -0.949Q5.157 -1.228 5.283 -1.449Q5.409 -1.670 5.627 -1.793Q5.845 -1.916 6.117 -1.916Z"/>
      <path d="M8.030 -0.301H8.654V0.000H7.651V-1.892H8.030Z"/>
      <path d="M9.594 -1.892V0.000H9.215V-1.892Z"/>
      <path d="M10.985 -0.726H10.668V0.000H10.288V-1.892H10.985Q11.204 -1.892 11.359 -1.816Q11.513 -1.740 11.591 -1.607Q11.668 -1.474 11.668 -1.306Q11.668 -1.155 11.596 -1.022Q11.524 -0.889 11.371 -0.808Q11.218 -0.726 10.985 -0.726ZM11.278 -1.306Q11.278 -1.583 10.969 -1.583H10.668V-1.033H10.969Q11.126 -1.033 11.202 -1.104Q11.278 -1.176 11.278 -1.306Z"/>
      <path d="M12.207 -0.545H12.614Q12.622 -0.428 12.697 -0.360Q12.771 -0.293 12.901 -0.293Q13.034 -0.293 13.110 -0.356Q13.186 -0.420 13.186 -0.523Q13.186 -0.607 13.134 -0.661Q13.083 -0.716 13.006 -0.747Q12.928 -0.778 12.793 -0.816Q12.609 -0.870 12.493 -0.923Q12.378 -0.976 12.296 -1.083Q12.213 -1.190 12.213 -1.369Q12.213 -1.537 12.297 -1.661Q12.381 -1.786 12.533 -1.853Q12.685 -1.919 12.880 -1.919Q13.172 -1.919 13.355 -1.777Q13.538 -1.634 13.557 -1.380H13.140Q13.134 -1.477 13.057 -1.541Q12.980 -1.605 12.853 -1.605Q12.741 -1.605 12.675 -1.548Q12.609 -1.491 12.609 -1.382Q12.609 -1.306 12.659 -1.256Q12.709 -1.206 12.783 -1.175Q12.858 -1.144 12.994 -1.103Q13.178 -1.049 13.294 -0.995Q13.411 -0.941 13.495 -0.832Q13.579 -0.724 13.579 -0.548Q13.579 -0.396 13.500 -0.266Q13.422 -0.136 13.270 -0.058Q13.118 0.019 12.909 0.019Q12.712 0.019 12.553 -0.049Q12.395 -0.117 12.302 -0.244Q12.210 -0.371 12.207 -0.545Z"/>
      <path d="M14.606 -1.586V-1.111H15.243V-0.810H14.606V-0.309H15.325V0.000H14.227V-1.895H15.325V-1.586Z"/>
    </g>
    <circle cx="0.550" cy="-0.950" r="1.05" fill="none" stroke="#ffc464" stroke-width="0.3" stroke-opacity="0.9"/>
    <circle cx="0.550" cy="-0.950" r="0.28" fill="#cd762b"/>
  </g>
</svg>
